# xmcd
#
# Track frame offsets: 
#        183
#        33173
#        45850
#        78820
#        92080
#        117700
#        138515
#        161568
#
# Disc length: 2415 seconds
#
# Revision: 1
# Processed by: cddbd v1.5.2PL0 Copyright (c) Steve Scherf et al.
# Submitted via: ExactAudioCopy v0.99pb5
#
DISCID=5a096d08
DTITLE=Albert King - I'll Play The Blues For You
DYEAR=1972
DGENRE=Blues
TTITLE0=I'll Play The Blues For You
TTITLE1=Little Brother
TTITLE2=Breaking Up Somebody's Home
TTITLE3=High Cost Of Loving
TTITLE4=I'll Be Doggone
TTITLE5=Answer To The Laundromat Blues
TTITLE6=Don't Burn Down The Bridge ('cause You Might Wanna Come Back A
TTITLE6=cross)
TTITLE7=Angel Of Mercy
EXTD=
EXTT0=
EXTT1=
EXTT2=
EXTT3=
EXTT4=
EXTT5=
EXTT6=
EXTT7=
PLAYORDER=
